<svg xmlns="http://www.w3.org/2000/svg" viewBox="0 0 39.687 39.687"><path d="M19.844 2.037c-5.953 0-14.08 5.976-14.08 18.922 0 10.441 7.34 16.691 14.08 16.691s14.08-6.25 14.08-16.691c0-12.946-8.127-18.923-14.08-18.923z" fill="gray"/><path d="M5.764 20.959c.25 12.682 10.938 16.691 14.08 16.691 3.141 0 13.83-4.009 14.08-16.691-1.822 10.27-10.607 13.433-14.08 13.433-3.474 0-12.258-3.164-14.08-13.433z" opacity=".541"/><path d="M19.844 2.037c-5.953 0-14.08 5.976-14.08 18.922 0 10.441 7.34 16.691 14.08 16.691s14.08-6.25 14.08-16.691c0-12.946-8.127-18.923-14.08-18.923z" fill="none" stroke="#000" stroke-width="1.058"/><path d="M5.764 20.959c.25 12.682 10.938 16.691 14.08 16.691 3.141 0 13.83-4.009 14.08-16.691-1.822 10.27-10.607 13.433-14.08 13.433-3.474 0-12.258-3.164-14.08-13.433z" opacity=".541"/>
<polygon points="0,37 37,0 39.687,0 39.687,2 2,39.687 0,39.687" fill="#ff3535" stroke="none"></polygon>
</svg>
